<?xml version="1.0" encoding="iso-8859-1"?>
<!-- Uploaded to: SVG Repo, www.svgrepo.com, Generator: SVG Repo Mixer Tools -->
<svg fill="#000000" height="800px" width="800px" version="1.1" id="Layer_1" xmlns="http://www.w3.org/2000/svg" xmlns:xlink="http://www.w3.org/1999/xlink" 
	 viewBox="0 0 512 512" xml:space="preserve">
<g>
	<g>
		<g>
			<path d="M324.265,422.397c9.429,0,17.067-7.646,17.067-17.067c0-9.429-7.637-17.067-17.067-17.067s-17.067,7.637-17.067,17.067
				C307.198,414.751,314.836,422.397,324.265,422.397z"/>
			<path d="M110.932,337.063c-9.429,0-17.067,7.637-17.067,17.067c0,9.421,7.637,17.067,17.067,17.067s17.067-7.646,17.067-17.067
				C127.998,344.701,120.361,337.063,110.932,337.063z"/>
			<path d="M180.64,161.72c-2.074-7.287-8.815-12.39-16.41-12.39h-61.833c-9.412,0-17.067,7.654-17.067,17.067v42.667
				c0,9.412,7.654,17.067,17.067,17.067h74.018c5.41,0,10.377-2.475,13.628-6.792c3.251-4.318,4.267-9.762,2.79-14.959
				L180.64,161.72z"/>
			<path d="M503.467,183.467h-12.621L415.829,76.416c-5.589-17.058-21.47-29.483-40.363-29.483
				c-23.526,0-42.667,19.14-42.667,42.667c0,0.222,0.06,0.427,0.068,0.649l-90.334,124.979l-16.401-73.327
				c-3.507-15.727-17.212-26.701-33.314-26.701H76.817c-18.833,0-34.15,15.317-34.15,34.15v117.521
				c-3.448,2.705-6.784,5.538-9.882,8.627c-0.094,0.077-0.205,0.102-0.299,0.188c-0.085,0.085-0.111,0.205-0.188,0.29
				C12.348,296.047,0,323.669,0,354.133c0,30.455,12.348,58.078,32.299,78.148c0.077,0.085,0.102,0.205,0.188,0.29
				c0.094,0.085,0.205,0.111,0.299,0.196c20.062,19.942,47.684,32.299,78.148,32.299c30.455,0,58.078-12.356,78.148-32.299
				c0.085-0.085,0.205-0.111,0.29-0.196c0.085-0.085,0.111-0.205,0.196-0.29c7.851-7.902,14.473-16.998,19.678-26.948h55.287
				c0,32.93,26.795,59.733,59.733,59.733c32.93,0,59.733-26.803,59.733-59.733h8.516c7.97,0,15.138-4.437,18.697-11.571
				l30.549-86.716c2.987-6.4,2.56-13.756-1.161-19.797c-3.849-6.212-10.496-9.916-17.792-9.916H280.73l103.433-145.971
				c2.159-0.452,4.207-1.178,6.238-1.937l30.242,54.042h-19.576c-2.867,0-5.547,1.442-7.125,3.831
				c-1.579,2.398-1.852,5.427-0.717,8.055l7.569,17.664c12.322,28.774,39.313,48.794,70.434,52.258l22.451,2.492
				c-3.226,10.436-12.86,18.099-24.346,18.099c-4.719,0-8.533,3.814-8.533,8.533c0,4.71,3.814,8.533,8.533,8.533
				c23.526,0,42.667-19.149,42.667-42.667V192C512,187.281,508.186,183.467,503.467,183.467z M323.84,362.709
				c2.432,0.026,4.821,0.213,7.142,0.631c0.009,0,0.026,0,0.043,0.008c17.417,3.14,31.326,16.836,34.355,34.867l1.203,7.117h0.35
				c0,23.518-19.14,42.667-42.667,42.667c-23.526,0-42.667-19.149-42.667-42.667C281.6,381.952,300.518,362.94,323.84,362.709z
				 M170.667,362.667h33.673c-0.043,0.452-0.026,0.913-0.077,1.365c-0.051,0.529-0.171,1.033-0.239,1.553
				c-0.341,2.79-0.759,5.564-1.357,8.311c-0.077,0.35-0.188,0.683-0.273,1.041c-0.674,2.918-1.451,5.82-2.415,8.678
				c-0.06,0.205-0.145,0.393-0.213,0.589c-1.007,2.944-2.159,5.862-3.465,8.738c-3.507,7.663-7.945,14.814-13.278,21.205
				l-23.817-23.808c-3.337-3.337-8.73-3.337-12.066,0c-3.337,3.328-3.337,8.73,0,12.066l23.817,23.817
				c-14.234,11.861-32.009,19.576-51.49,21.342v-33.698c0-4.719-3.814-8.533-8.533-8.533s-8.533,3.814-8.533,8.533v33.698
				c-19.482-1.766-37.265-9.481-51.49-21.342l23.817-23.817c3.328-3.336,3.328-8.738,0-12.066c-3.336-3.337-8.738-3.337-12.066,0
				l-23.817,23.808c-11.87-14.225-19.584-32-21.35-51.482H51.2c4.719,0,8.533-3.823,8.533-8.533c0-4.719-3.814-8.533-8.533-8.533
				H17.493c1.766-19.482,9.481-37.265,21.35-51.49l23.817,23.808c1.664,1.673,3.849,2.5,6.033,2.5c2.176,0,4.361-0.828,6.033-2.5
				c3.328-3.328,3.328-8.73,0-12.066L50.91,282.044c1.835-1.536,3.772-2.953,5.726-4.344c1.519-1.084,3.072-2.099,4.642-3.081
				c0.751-0.469,1.502-0.93,2.27-1.382c1.476-0.87,2.97-1.715,4.48-2.5c1.033-0.529,2.082-1.015,3.132-1.51
				c1.357-0.64,2.697-1.297,4.079-1.869c2.355-0.973,4.762-1.869,7.211-2.645c0.922-0.299,1.86-0.521,2.79-0.785
				c1.809-0.521,3.644-1.007,5.495-1.417c1.007-0.222,2.022-0.41,3.029-0.597c1.92-0.358,3.849-0.657,5.803-0.887
				c0.905-0.111,1.809-0.239,2.722-0.324c0.034,0,0.077,0,0.111-0.009V294.4c0,4.71,3.814,8.533,8.533,8.533
				s8.533-3.823,8.533-8.533v-33.681c0.435,0.043,0.887,0.026,1.323,0.068c0.154,0.017,0.299,0.06,0.452,0.077
				c9.643,1.075,19.021,3.635,27.802,7.56c0.094,0.043,0.188,0.094,0.282,0.137c2.833,1.28,5.598,2.697,8.294,4.25
				c0.213,0.128,0.427,0.265,0.649,0.393c2.543,1.502,5.026,3.115,7.432,4.847c0.29,0.213,0.572,0.435,0.862,0.649
				c1.468,1.084,2.859,2.295,4.267,3.465l-23.689,23.689c-3.337,3.337-3.337,8.738,0,12.066c1.664,1.673,3.849,2.5,6.033,2.5
				s4.369-0.828,6.033-2.5l23.706-23.706c0.956,1.135,1.92,2.261,2.816,3.439c0.307,0.401,0.614,0.811,0.913,1.22
				c1.382,1.886,2.688,3.823,3.925,5.803c0.324,0.521,0.64,1.041,0.956,1.57c1.143,1.911,2.219,3.857,3.217,5.845
				c0.333,0.657,0.649,1.331,0.964,1.997c0.905,1.903,1.758,3.823,2.526,5.786c0.333,0.828,0.623,1.681,0.93,2.526
				c0.666,1.843,1.306,3.695,1.86,5.572c0.316,1.092,0.572,2.202,0.845,3.311c0.435,1.69,0.862,3.388,1.203,5.103
				c0.29,1.519,0.486,3.072,0.7,4.617c0.196,1.365,0.444,2.722,0.572,4.096c0.017,0.171,0.009,0.333,0.026,0.503h-33.698
				c-4.719,0-8.533,3.814-8.533,8.533C162.133,358.844,165.948,362.667,170.667,362.667z M190.805,277.333
				c-0.026-0.034-0.06-0.06-0.085-0.085c-0.393-0.41-0.751-0.862-1.152-1.271c-0.085-0.085-0.111-0.205-0.196-0.29
				c-0.085-0.085-0.205-0.111-0.29-0.188c-20.07-19.951-47.693-32.299-78.148-32.299c-4.224,0-8.371,0.282-12.476,0.751
				c-1.254,0.137-2.483,0.384-3.729,0.563c-2.884,0.427-5.751,0.922-8.559,1.57c-1.348,0.307-2.671,0.674-4.011,1.033
				c-2.79,0.751-5.538,1.604-8.243,2.568c-1.152,0.41-2.295,0.811-3.43,1.254c-3.277,1.289-6.46,2.731-9.574,4.309
				c-0.384,0.196-0.794,0.333-1.178,0.529V149.35c0-9.421,7.663-17.084,17.084-17.084h116.002c8.055,0,14.908,5.487,16.666,13.355
				l20.54,91.819v0.017l8.926,39.876H190.805z M213.308,311.467h0.026h34.133c4.719,0,8.533,3.814,8.533,8.533
				c0,4.71-3.814,8.533-8.533,8.533h-28.706C217.37,322.662,215.595,316.937,213.308,311.467z M264.533,362.667h-43.102
				c0.222-2.825,0.435-5.658,0.435-8.533c0-2.884-0.213-5.709-0.435-8.533h43.102c4.719,0,8.533,3.814,8.533,8.533
				C273.067,358.844,269.252,362.667,264.533,362.667z M259.814,277.333h-3.379l-8.917-39.859l91.255-126.259
				c0.137,0.23,0.333,0.427,0.478,0.657c0.879,1.425,1.869,2.748,2.901,4.053c0.734,0.939,1.459,1.877,2.27,2.748
				c0.896,0.956,1.86,1.818,2.833,2.688c1.109,0.99,2.21,1.946,3.413,2.816c0.93,0.674,1.911,1.246,2.901,1.843
				c1.357,0.819,2.714,1.596,4.164,2.261c1.058,0.486,2.15,0.879,3.251,1.28c0.93,0.341,1.801,0.811,2.765,1.084L259.814,277.333z
				 M440.201,183.467l-35.285-63.061c0.077-0.068,0.128-0.162,0.196-0.239c2.142-2.074,4.096-4.326,5.768-6.81
				c0.068-0.102,0.102-0.213,0.171-0.316c1.528-2.313,2.825-4.787,3.883-7.381c0.068-0.154,0.179-0.29,0.239-0.444l54.827,78.251
				H440.201z"/>
		</g>
	</g>
</g>
</svg>